<svg xmlns="http://www.w3.org/2000/svg" viewBox="0 0 200 200">
  <defs>
    <linearGradient id="formGradient" x1="0%" y1="0%" x2="100%" y2="100%">
      <stop offset="0%" style="stop-color:#3B82F6;stop-opacity:1" />
      <stop offset="100%" style="stop-color:#1D4ED8;stop-opacity:1" />
    </linearGradient>
  </defs>
  
  <!-- Form document background -->
  <rect x="40" y="20" width="120" height="160" rx="8" ry="8" fill="#ffffff" stroke="#E5E7EB" stroke-width="2"/>
  
  <!-- Form header line -->
  <rect x="55" y="40" width="90" height="4" rx="2" fill="url(#formGradient)"/>
  
  <!-- Form fields -->
  <rect x="55" y="60" width="70" height="3" rx="1.5" fill="#9CA3AF"/>
  <rect x="55" y="70" width="90" height="8" rx="4" fill="#F3F4F6" stroke="#D1D5DB"/>
  
  <rect x="55" y="90" width="50" height="3" rx="1.5" fill="#9CA3AF"/>
  <rect x="55" y="100" width="90" height="8" rx="4" fill="#F3F4F6" stroke="#D1D5DB"/>
  
  <rect x="55" y="120" width="60" height="3" rx="1.5" fill="#9CA3AF"/>
  <rect x="55" y="130" width="90" height="20" rx="4" fill="#F3F4F6" stroke="#D1D5DB"/>
  
  <!-- Checkboxes -->
  <rect x="55" y="160" width="8" height="8" rx="2" fill="url(#formGradient)"/>
  <path d="M57 164 L59 166 L63 162" stroke="#ffffff" stroke-width="1.5" fill="none"/>
  <rect x="70" y="162" width="30" height="3" rx="1.5" fill="#9CA3AF"/>
  
  <rect x="110" y="160" width="8" height="8" rx="2" fill="#F3F4F6" stroke="#D1D5DB"/>
  <rect x="125" y="162" width="20" height="3" rx="1.5" fill="#9CA3AF"/>
  
  <!-- AI sparkle effect -->
  <circle cx="130" cy="35" r="3" fill="#FBBF24"/>
  <path d="M130 29 L132 35 L130 41 L128 35 Z" fill="#FBBF24"/>
  <path d="M124 35 L130 37 L136 35 L130 33 Z" fill="#FBBF24"/>
  
  <circle cx="145" cy="50" r="2" fill="#F59E0B"/>
  <path d="M145 46 L146.5 50 L145 54 L143.5 50 Z" fill="#F59E0B"/>
  <path d="M141 50 L145 51.5 L149 50 L145 48.5 Z" fill="#F59E0B"/>
</svg>